<?xml version="1.0" standalone="no"?>
<!DOCTYPE svg PUBLIC "-//W3C//DTD SVG 20010904//EN"
 "http://www.w3.org/TR/2001/REC-SVG-20010904/DTD/svg10.dtd">
<svg version="1.0" xmlns="http://www.w3.org/2000/svg"
 width="1024.000000pt" height="1024.000000pt" viewBox="0 0 1024.000000 1024.000000"
 preserveAspectRatio="xMidYMid meet">

<g transform="translate(0.000000,1024.000000) scale(0.100000,-0.100000)"
fill="#000000" stroke="none">
<path d="M5531 8768 c-54 -164 -134 -345 -268 -608 -69 -135 -128 -249 -131
-255 -3 -5 -14 47 -23 115 -40 278 -103 500 -190 670 -49 97 -88 158 -74 115
128 -373 165 -575 165 -895 0 -190 -14 -322 -69 -650 -35 -210 -46 -286 -69
-505 l-7 -60 -81 110 c-101 138 -153 225 -211 356 -88 201 -148 407 -223 764
-96 462 -158 705 -178 705 -5 0 4 -71 19 -159 15 -87 42 -273 59 -412 36 -290
80 -567 114 -716 13 -57 21 -103 20 -103 -9 0 -357 275 -423 334 -189 170
-287 328 -377 614 -25 78 -49 142 -55 142 -5 0 -7 -10 -5 -22 3 -13 8 -48 11
-78 9 -88 55 -265 90 -356 18 -46 31 -84 29 -84 -3 0 -59 34 -126 77 -137 87
-274 191 -396 301 -45 41 -85 72 -88 69 -8 -8 102 -131 197 -222 89 -84 131
-119 509 -421 583 -464 779 -680 965 -1059 177 -362 243 -553 279 -813 16
-115 21 -369 10 -480 l-7 -62 -127 123 c-70 68 -195 179 -279 246 -95 77 -197
172 -274 255 -229 247 -432 442 -712 682 -415 357 -393 332 -909 1057 -109
153 -200 276 -203 273 -3 -3 45 -95 107 -203 173 -301 331 -575 349 -602 15
-23 14 -23 -9 -16 -90 28 -633 287 -782 373 -59 34 -110 62 -114 62 -18 0 30
-37 159 -123 148 -98 199 -128 537 -320 113 -64 242 -142 286 -174 124 -88
521 -438 684 -603 130 -131 383 -420 375 -428 -2 -2 -61 11 -132 28 -157 38
-323 70 -553 105 -96 15 -235 42 -309 61 -146 37 -668 208 -821 269 -170 68
-427 203 -544 287 -21 15 -44 28 -49 28 -18 0 35 -49 131 -122 204 -154 361
-236 767 -403 143 -59 264 -110 269 -113 10 -6 -194 -55 -429 -104 -135 -28
-173 -31 -375 -35 -161 -3 -251 -1 -317 9 -51 8 -93 11 -93 6 0 -13 121 -45
235 -63 149 -24 471 -16 665 15 559 89 581 88 1087 -36 245 -60 395 -109 523
-174 343 -172 626 -505 710 -836 48 -187 47 -367 -5 -978 -42 -496 -69 -664
-140 -882 -64 -194 -144 -321 -262 -415 -88 -70 -127 -91 -297 -159 -225 -89
-594 -189 -996 -270 -113 -22 -214 -45 -225 -50 -29 -12 182 -12 341 0 232 19
1032 133 1283 184 l114 22 -29 -23 c-81 -65 -276 -144 -464 -188 -108 -25
-112 -38 -10 -31 388 30 556 71 788 192 67 35 133 64 146 64 12 0 51 -18 85
-40 155 -100 329 -167 525 -200 162 -27 295 -42 341 -38 36 3 29 6 -64 30
-188 50 -406 152 -465 217 -18 20 -18 20 15 11 19 -6 153 -38 299 -71 146 -34
333 -81 415 -104 182 -53 330 -82 450 -89 l90 -6 -65 20 c-219 68 -292 92
-288 95 1 1 28 -1 60 -6 307 -49 978 -117 933 -94 -19 9 -458 116 -685 166
-411 91 -580 139 -741 209 -276 120 -401 298 -498 710 -36 151 -44 212 -77
540 -32 326 -39 537 -26 775 13 211 36 344 81 462 108 279 350 540 595 642
149 62 432 107 606 97 135 -7 216 -27 461 -110 382 -131 554 -172 763 -183 66
-3 118 -2 114 2 -4 4 -58 17 -120 30 -152 31 -280 68 -396 114 -111 45 -363
159 -375 170 -4 4 66 15 155 25 463 50 730 97 926 162 114 37 258 101 249 110
-3 3 -48 -8 -101 -25 -328 -105 -585 -131 -1490 -151 -242 -6 -491 -15 -554
-20 -63 -6 -117 -8 -120 -5 -8 8 81 97 164 164 207 167 472 306 764 399 169
54 230 62 548 72 364 11 514 34 762 118 93 32 280 120 280 133 0 4 -59 -12
-131 -36 -266 -89 -449 -115 -814 -114 -137 0 -258 4 -269 8 -15 6 -4 16 61
58 332 216 638 505 782 739 48 79 37 81 -28 7 -100 -117 -323 -326 -442 -415
-290 -218 -536 -349 -899 -478 -163 -58 -295 -109 -372 -143 -32 -14 -58 -24
-58 -21 0 2 19 41 42 87 22 45 91 191 153 324 62 132 132 270 157 305 65 90
197 213 393 365 264 205 411 346 540 518 95 127 80 122 -61 -20 -76 -78 -185
-178 -242 -224 -152 -122 -449 -327 -459 -317 -2 2 6 28 18 57 120 301 211
635 235 859 9 88 -9 68 -31 -35 -24 -111 -97 -335 -158 -485 -73 -179 -230
-486 -317 -620 -41 -63 -112 -189 -158 -280 -123 -242 -167 -321 -253 -457
-154 -243 -228 -324 -514 -561 -258 -214 -377 -318 -465 -406 -46 -48 -87 -86
-91 -86 -8 0 -28 177 -35 320 -10 189 23 428 87 620 51 156 146 358 292 620
189 340 263 434 650 830 248 253 355 380 476 560 78 117 168 286 158 297 -3 3
-23 -21 -43 -53 -104 -163 -241 -330 -424 -518 -124 -127 -428 -406 -453 -415
-6 -2 -8 4 -5 15 88 300 149 581 188 873 19 144 27 291 15 279 -3 -3 -21 -79
-40 -169 -71 -346 -156 -633 -272 -924 -85 -213 -141 -318 -318 -590 -98 -150
-184 -301 -336 -587 -51 -98 -96 -178 -99 -178 -6 0 -30 75 -66 207 -82 303
-84 579 -8 1069 38 249 59 315 204 624 108 230 192 461 234 642 25 104 43 218
35 218 -3 0 -20 -46 -38 -102z"/>
</g>
</svg>
